<?xml version="1.0" encoding="utf-8"?>
<!-- Generator: Adobe Illustrator 24.1.3, SVG Export Plug-In . SVG Version: 6.00 Build 0)  -->
<svg version="1.1" id="Layer_1" xmlns="http://www.w3.org/2000/svg" xmlns:xlink="http://www.w3.org/1999/xlink" x="0px" y="0px"
	 viewBox="0 0 32 32" style="enable-background:new 0 0 32 32;" xml:space="preserve">
<style type="text/css">
	.st0{fill:#FFFFFF;}
</style>
<path d="M16,32L16,32C7.2,32,0,24.8,0,16v0C0,7.2,7.2,0,16,0h0c8.8,0,16,7.2,16,16v0C32,24.8,24.8,32,16,32z"/>
<g>
	<path class="st0" d="M7,22.2V9.8h4.8c0.9,0,1.7,0.2,2.4,0.5c0.7,0.4,1.2,0.9,1.5,1.5c0.3,0.6,0.5,1.4,0.5,2.2
		c0,0.8-0.2,1.5-0.5,2.2c-0.4,0.6-0.9,1.1-1.5,1.5c-0.7,0.4-1.5,0.5-2.4,0.5H8.7v-2h2.7c0.5,0,0.9-0.1,1.3-0.3s0.6-0.4,0.7-0.7
		c0.2-0.3,0.2-0.7,0.2-1.1s-0.1-0.8-0.2-1.1c-0.2-0.3-0.4-0.6-0.8-0.7s-0.8-0.3-1.3-0.3H9.5v10.3H7z"/>
	<path class="st0" d="M17.2,9.8v12.4h-2.5V9.8H17.2z M19,22.2h-3.2V20h3.1c0.8,0,1.5-0.1,2-0.4c0.5-0.3,0.9-0.7,1.2-1.3
		c0.3-0.6,0.4-1.4,0.4-2.3c0-0.9-0.1-1.7-0.4-2.3s-0.7-1-1.2-1.3c-0.5-0.3-1.2-0.4-2-0.4h-3.2V9.8H19c1.2,0,2.3,0.2,3.2,0.7
		s1.6,1.2,2.1,2.1s0.7,2,0.7,3.3c0,1.3-0.2,2.4-0.7,3.3s-1.2,1.6-2.1,2.1C21.3,21.9,20.2,22.2,19,22.2z"/>
</g>
</svg>
